<svg width="12" height="12" viewBox="0 0 12 12" fill="none" xmlns="http://www.w3.org/2000/svg">
<path fill-rule="evenodd" clip-rule="evenodd" d="M0.166626 6.00342C0.166626 5.54318 0.539722 5.17008 0.999959 5.17008H11C11.4602 5.17008 11.8333 5.54318 11.8333 6.00342C11.8333 6.46366 11.4602 6.83675 11 6.83675H0.999959C0.539722 6.83675 0.166626 6.46366 0.166626 6.00342Z" fill="#14488C" fill-opacity="0.92"/>
<path fill-rule="evenodd" clip-rule="evenodd" d="M5.4107 0.410704C5.73614 0.0852667 6.26378 0.0852667 6.58921 0.410704L11.5892 5.4107C11.9147 5.73614 11.9147 6.26378 11.5892 6.58921L6.58921 11.5892C6.26378 11.9147 5.73614 11.9147 5.4107 11.5892C5.08527 11.2638 5.08527 10.7361 5.4107 10.4107L9.82145 5.99996L5.4107 1.58921C5.08527 1.26378 5.08527 0.736141 5.4107 0.410704Z" fill="#14488C" fill-opacity="0.92"/>
</svg>
