<svg width="19" height="19" viewBox="0 0 19 19" fill="none" xmlns="http://www.w3.org/2000/svg">
<path fill-rule="evenodd" clip-rule="evenodd" d="M18.0814 0.902915C18.3121 1.12753 18.3927 1.46496 18.2886 1.76962L12.8741 17.603C12.7546 17.9523 12.4194 18.1814 12.0505 18.1659C11.6816 18.1504 11.3669 17.8939 11.2772 17.5357L9.3206 9.72075L1.50841 8.2091C1.14172 8.13814 0.867019 7.83186 0.83623 7.45963C0.805442 7.0874 1.02608 6.74015 1.37614 6.60991L17.2095 0.718954C17.5112 0.606676 17.8507 0.678295 18.0814 0.902915ZM10.9238 9.2617L12.2093 14.3962L16.1426 2.89419L4.73967 7.13676L9.7267 8.10175L11.7713 6.05718C12.0967 5.73175 12.6243 5.73175 12.9498 6.05718C13.2752 6.38262 13.2752 6.91026 12.9498 7.23569L10.9238 9.2617Z" fill="#C8DEFA" fill-opacity="0.06"/>
</svg>
