<svg width="12" height="16" viewBox="0 0 12 16" fill="none" xmlns="http://www.w3.org/2000/svg">
<path fill-rule="evenodd" clip-rule="evenodd" d="M6.00342 0.5C6.46366 0.5 6.83675 0.873096 6.83675 1.33333V2.16667C6.83675 2.6269 6.46366 3 6.00342 3C5.54318 3 5.17008 2.6269 5.17008 2.16667V1.33333C5.17008 0.873096 5.54318 0.5 6.00342 0.5ZM6.83675 5.5C6.83675 5.03976 6.46366 4.66667 6.00342 4.66667C5.54318 4.66667 5.17008 5.03976 5.17008 5.5V6.33333C5.17008 6.79357 5.54318 7.16667 6.00342 7.16667C6.46366 7.16667 6.83675 6.79357 6.83675 6.33333V5.5ZM5.4107 15.2559C5.73614 15.5814 6.26378 15.5814 6.58921 15.2559L11.5892 10.2559C11.9147 9.93049 11.9147 9.40285 11.5892 9.07741C11.2638 8.75197 10.7361 8.75197 10.4107 9.07741L6.83675 12.6514V9.66667C6.83675 9.20643 6.46365 8.83333 6.00342 8.83333C5.54318 8.83333 5.17008 9.20643 5.17008 9.66667V12.6583L1.58922 9.07741C1.26378 8.75197 0.736141 8.75197 0.410704 9.07741C0.0852668 9.40285 0.0852668 9.93049 0.410704 10.2559L5.4107 15.2559Z" fill="#14488C" fill-opacity="0.92"/>
</svg>
