<svg width="200" height="200" viewBox="0 0 200 200" fill="none" xmlns="http://www.w3.org/2000/svg">
<path d="M100.003 109.091C105.024 109.091 109.095 105.02 109.095 99.9995C109.095 94.9785 105.024 90.9082 100.003 90.9082C94.9824 90.9082 90.9121 94.9785 90.9121 99.9995C90.9121 105.02 94.9824 109.091 100.003 109.091Z" fill="#14488C"/>
<path fill-rule="evenodd" clip-rule="evenodd" d="M68.1826 100.001C68.1826 117.574 82.4286 131.819 100.001 131.819V113.636C92.4696 113.636 86.3639 107.531 86.3639 100L68.1826 100.001Z" fill="#B6BDCC"/>
<path fill-rule="evenodd" clip-rule="evenodd" d="M131.82 100C131.82 82.4267 117.574 68.1816 100.001 68.1816V86.3642C107.533 86.3642 113.638 92.4691 113.638 100.001L131.82 100Z" fill="#1A232E"/>
<path fill-rule="evenodd" clip-rule="evenodd" d="M52.7627 127.272C67.8253 153.361 101.185 162.299 127.274 147.237L118.183 131.491C100.79 141.532 78.55 135.573 68.5083 118.18L52.7627 127.272Z" fill="#1A232E"/>
<path fill-rule="evenodd" clip-rule="evenodd" d="M61.3672 166.92C98.3265 188.258 145.586 175.595 166.925 138.635L151.178 129.544C134.86 157.808 98.7208 167.491 70.4578 151.173L61.3672 166.92Z" fill="#14488C"/>
<path fill-rule="evenodd" clip-rule="evenodd" d="M147.242 72.7269C132.179 46.6384 98.819 37.6998 72.7303 52.7623L81.8216 68.5084C99.2141 58.4668 121.455 64.4258 131.496 81.8189L147.242 72.7269Z" fill="#14488C"/>
<path fill-rule="evenodd" clip-rule="evenodd" d="M138.638 33.0802C101.679 11.7421 54.4192 24.4052 33.0801 61.3649L48.8264 70.4561C65.1446 42.1919 101.283 32.509 129.547 48.8271L138.638 33.0802Z" fill="#B6BDCC"/>
<path fill-rule="evenodd" clip-rule="evenodd" d="M100.001 200.001C155.23 200.001 200.001 155.229 200.001 100.001H181.819C181.819 145.189 145.189 181.819 99.9999 181.819L100.001 200.001Z" fill="#B6BDCC"/>
<path fill-rule="evenodd" clip-rule="evenodd" d="M100.001 0C44.7719 0 0.000976562 44.7719 0.000976562 100H18.1837C18.1837 54.812 54.8143 18.1818 100.002 18.1818L100.001 0Z" fill="#1A232E"/>
</svg>
