<svg width="200" height="200" viewBox="0 0 200 200" fill="none" xmlns="http://www.w3.org/2000/svg">
<path d="M109.094 99.9986C109.094 94.9775 105.023 90.9072 100.002 90.9071C94.9814 90.9071 90.9111 94.9775 90.9111 99.9985C90.9111 105.02 94.9814 109.09 100.002 109.09C105.023 109.09 109.094 105.02 109.094 99.9986Z" fill="#14488C"/>
<path fill-rule="evenodd" clip-rule="evenodd" d="M100.002 131.818C117.575 131.818 131.82 117.573 131.82 100L113.637 100C113.637 107.531 107.532 113.637 100.001 113.637L100.002 131.818Z" fill="#B6BDCC"/>
<path fill-rule="evenodd" clip-rule="evenodd" d="M100.002 68.1813C82.4287 68.1812 68.1836 82.4271 68.1836 100L86.3662 100C86.3662 92.4681 92.4711 86.3632 100.003 86.3632L100.002 68.1813Z" fill="#1A232E"/>
<path fill-rule="evenodd" clip-rule="evenodd" d="M127.274 147.238C153.363 132.176 162.302 98.8166 147.239 72.7271L131.493 81.8184C141.534 99.2116 135.575 121.451 118.182 131.493L127.274 147.238Z" fill="#1A232E"/>
<path fill-rule="evenodd" clip-rule="evenodd" d="M166.922 138.635C188.26 101.676 175.597 54.4166 138.637 33.0774L129.546 48.8245C157.81 65.142 167.493 101.282 151.175 129.544L166.922 138.635Z" fill="#14488C"/>
<path fill-rule="evenodd" clip-rule="evenodd" d="M72.7289 52.7603C46.6404 67.8228 37.7017 101.183 52.7642 127.272L68.5104 118.18C58.4687 100.788 64.4278 78.5476 81.8209 68.5059L72.7289 52.7603Z" fill="#14488C"/>
<path fill-rule="evenodd" clip-rule="evenodd" d="M33.0812 61.3643C11.743 98.3235 24.4062 145.583 61.3659 166.922L70.4572 151.176C42.1929 134.857 32.51 98.7186 48.8281 70.455L33.0812 61.3643Z" fill="#B6BDCC"/>
<path fill-rule="evenodd" clip-rule="evenodd" d="M200.002 100.002C200.002 44.7724 155.23 0.00146159 100.003 0.001294V18.1832C145.19 18.1834 181.82 54.8141 181.82 100.003L200.002 100.002Z" fill="#B6BDCC"/>
<path fill-rule="evenodd" clip-rule="evenodd" d="M0.00195313 99.9996C0.00195313 155.229 44.7739 200 100.002 200V181.818C54.8141 181.817 18.1838 145.187 18.1838 99.999L0.00195313 99.9996Z" fill="#1A232E"/>
</svg>
