<svg width="200" height="200" viewBox="0 0 200 200" fill="none" xmlns="http://www.w3.org/2000/svg">
<path d="M90.9112 100.001C90.9112 105.022 94.9815 109.093 100.002 109.093C105.023 109.093 109.094 105.022 109.094 100.001C109.094 94.9805 105.023 90.9102 100.002 90.9102C94.9815 90.9102 90.9112 94.9805 90.9112 100.001Z" fill="#14488C"/>
<path fill-rule="evenodd" clip-rule="evenodd" d="M100.003 68.1816C82.4302 68.1816 68.1851 82.4276 68.1851 99.9998H86.3677C86.3677 92.4685 92.4726 86.3628 100.004 86.3628L100.003 68.1816Z" fill="#B6BDCC"/>
<path fill-rule="evenodd" clip-rule="evenodd" d="M100.003 131.819C117.576 131.819 131.821 117.573 131.821 99.9998H113.639C113.639 107.532 107.534 113.637 100.002 113.637L100.003 131.819Z" fill="#1A232E"/>
<path fill-rule="evenodd" clip-rule="evenodd" d="M72.7305 52.7617C46.6419 67.8243 37.7033 101.184 52.7658 127.273L68.512 118.182C58.4703 100.789 64.4294 78.549 81.8225 68.5072L72.7305 52.7617Z" fill="#1A232E"/>
<path fill-rule="evenodd" clip-rule="evenodd" d="M33.0827 61.3652C11.7445 98.3244 24.4077 145.584 61.3675 166.923L70.4588 151.176C42.1944 134.858 32.5117 98.7188 48.8298 70.4558L33.0827 61.3652Z" fill="#14488C"/>
<path fill-rule="evenodd" clip-rule="evenodd" d="M127.276 147.24C153.365 132.177 162.303 98.817 147.241 72.7283L131.494 81.8196C141.536 99.2121 135.577 121.452 118.184 131.494L127.276 147.24Z" fill="#14488C"/>
<path fill-rule="evenodd" clip-rule="evenodd" d="M166.924 138.636C188.262 101.676 175.599 54.4172 138.639 33.0781L129.548 48.8244C157.812 65.1426 167.495 101.281 151.177 129.545L166.924 138.636Z" fill="#B6BDCC"/>
<path fill-rule="evenodd" clip-rule="evenodd" d="M0.00242447 99.9985C0.00242447 155.228 44.7745 199.999 100.002 199.999V181.817C54.8146 181.817 18.1843 145.186 18.1843 99.9978L0.00242447 99.9985Z" fill="#B6BDCC"/>
<path fill-rule="evenodd" clip-rule="evenodd" d="M200.003 100C200.003 44.7707 155.231 0 100.002 0V18.1827C145.191 18.1827 181.821 54.8132 181.821 100.001L200.003 100Z" fill="#1A232E"/>
</svg>
