<svg width="200" height="200" viewBox="0 0 200 200" fill="none" xmlns="http://www.w3.org/2000/svg">
<path d="M100.001 90.9092C94.9804 90.9092 90.91 94.9795 90.91 100.001C90.91 105.021 94.9804 109.092 100.001 109.092C105.022 109.092 109.093 105.021 109.093 100.001C109.093 94.9795 105.022 90.9092 100.001 90.9092Z" fill="#14488C"/>
<path fill-rule="evenodd" clip-rule="evenodd" d="M131.822 99.9993C131.822 82.4263 117.576 68.1813 100.004 68.1813L100.004 86.3638C107.535 86.3638 113.641 92.4687 113.641 100L131.822 99.9993Z" fill="#B6BDCC"/>
<path fill-rule="evenodd" clip-rule="evenodd" d="M68.184 99.9996C68.1841 117.573 82.43 131.818 100.003 131.818L100.003 113.636C92.471 113.636 86.366 107.531 86.366 99.9989L68.184 99.9996Z" fill="#1A232E"/>
<path fill-rule="evenodd" clip-rule="evenodd" d="M147.241 72.7277C132.178 46.6391 98.819 37.7005 72.7295 52.763L81.8209 68.5091C99.2141 58.4675 121.454 64.4265 131.496 81.8197L147.241 72.7277Z" fill="#1A232E"/>
<path fill-rule="evenodd" clip-rule="evenodd" d="M138.637 33.08C101.678 11.7418 54.4188 24.405 33.0798 61.3647L48.8269 70.456C65.1443 42.1917 101.284 32.509 129.547 48.827L138.637 33.08Z" fill="#14488C"/>
<path fill-rule="evenodd" clip-rule="evenodd" d="M52.7631 127.273C67.8258 153.362 101.186 162.3 127.275 147.238L118.183 131.492C100.791 141.533 78.5504 135.574 68.5086 118.181L52.7631 127.273Z" fill="#14488C"/>
<path fill-rule="evenodd" clip-rule="evenodd" d="M61.3672 166.92C98.3265 188.258 145.586 175.595 166.925 138.635L151.178 129.544C134.86 157.808 98.7215 167.491 70.4577 151.173L61.3672 166.92Z" fill="#B6BDCC"/>
<path fill-rule="evenodd" clip-rule="evenodd" d="M100.004 -0.00120788C44.7742 -0.00120788 0.00358703 44.7708 0.00375462 99.9984H18.1857C18.1856 54.8109 54.816 18.1806 100.005 18.1806L100.004 -0.00120788Z" fill="#B6BDCC"/>
<path fill-rule="evenodd" clip-rule="evenodd" d="M100.004 200C155.233 200 200.004 155.228 200.004 99.9996H181.821C181.821 145.188 145.191 181.818 100.003 181.818L100.004 200Z" fill="#1A232E"/>
</svg>
