<svg viewBox="0 0 16 16" xmlns="http://www.w3.org/2000/svg" xmlns:xlink="http://www.w3.org/1999/xlink" width="16.000000" height="16.000000" fill="none">
	<rect id="Base/hamburger-button" width="16.000000" height="16.000000" x="0.000000" y="0.000000" />
	<path id="Union" d="M1.9834 3.98307C1.9834 3.61488 2.28188 3.31641 2.65007 3.31641L13.3167 3.31641C13.6849 3.31641 13.9834 3.61488 13.9834 3.98307C13.9834 4.35126 13.6849 4.64974 13.3167 4.64974L2.65007 4.64974C2.28188 4.64974 1.9834 4.35126 1.9834 3.98307ZM1.9834 7.98307C1.9834 7.61488 2.28188 7.31641 2.65007 7.31641L13.3167 7.31641C13.6849 7.31641 13.9834 7.61488 13.9834 7.98307C13.9834 8.35126 13.6849 8.64974 13.3167 8.64974L2.65007 8.64974C2.28188 8.64974 1.9834 8.35126 1.9834 7.98307ZM1.9834 11.9831C1.9834 11.6149 2.28188 11.3164 2.65007 11.3164L13.3167 11.3164C13.6849 11.3164 13.9834 11.6149 13.9834 11.9831C13.9834 12.3513 13.6849 12.6497 13.3167 12.6497L2.65007 12.6497C2.28188 12.6497 1.9834 12.3513 1.9834 11.9831Z" fill="rgb(20,72,140)" fill-opacity="0.920000017" fill-rule="evenodd" />
</svg>
