<svg width="96" height="16" viewBox="0 0 96 16" fill="none" xmlns="http://www.w3.org/2000/svg">
<path d="M84.6071 12.3886H87.3249C88.1946 12.3886 88.9522 12.2171 89.597 11.8742C90.2419 11.5315 90.7457 11.0286 91.1082 10.3658C91.4706 9.70312 91.6517 8.91429 91.6517 8.00002C91.6517 7.07066 91.4706 6.27825 91.1082 5.62296C90.7457 4.96768 90.2419 4.46855 89.597 4.12582C88.9522 3.7829 88.1946 3.61163 87.3249 3.61163H84.6071V12.3886ZM80.302 15.9998V0H87.4988C89.18 0 90.6585 0.327857 91.9341 0.982954C93.2098 1.63824 94.2062 2.56003 94.9238 3.74875C95.6413 4.93728 96 6.35445 96 8.00002C96 9.63069 95.6413 11.0437 94.9238 12.2399C94.2062 13.4362 93.2098 14.362 91.9341 15.0171C90.6585 15.6726 89.18 15.9998 87.4988 15.9998H80.302Z" fill="#1A232E"/>
<path d="M68.3224 12.5029H75.9975V16H64.0607V0H75.9975V3.49731H68.3224V6.19448H74.9213V9.57711H68.3224V12.5029Z" fill="#1A232E"/>
<path d="M42.0972 16V0H45.6411L50.9984 9.24417L56.2081 0H59.7522L59.7955 16H55.8383L55.8003 7.51092L52.0007 14.2122L49.8484 14.2181L46.0761 7.74858V16H42.0972Z" fill="#1A232E"/>
<path d="M33.5052 16V0H37.8102V16H33.5052Z" fill="#1A232E"/>
<path d="M20.5902 16L14.089 0H18.742L22.8675 10.4293L27.0911 0H31.3529L24.8299 16H20.5902Z" fill="#1A232E"/>
<path d="M4.26147 12.5029H11.937V16H0V0H11.937V3.49731H4.26147V6.19448H10.8607V9.57711H4.26147V12.5029Z" fill="#1A232E"/>
</svg>
