<svg width="36" height="36" viewBox="0 0 36 36" fill="none" xmlns="http://www.w3.org/2000/svg">
<g id="Symbol_Logo">
<path id="Blue In" d="M18.0002 19.6364C18.904 19.6364 19.6367 18.9037 19.6367 18C19.6367 17.0962 18.904 16.3635 18.0002 16.3635C17.0964 16.3635 16.3638 17.0962 16.3638 18C16.3638 18.9037 17.0964 19.6364 18.0002 19.6364Z" fill="#14488C"/>
<path id="Grafit In" fill-rule="evenodd" clip-rule="evenodd" d="M12.2725 17.9999C12.2725 21.163 14.8367 23.7271 17.9997 23.7271V20.4543C16.6441 20.4543 15.5451 19.3554 15.5451 17.9998L12.2725 17.9999Z" fill="#B6BDCC"/>
<g id="Black In">
<path fill-rule="evenodd" clip-rule="evenodd" d="M23.7273 18.0001C23.7273 14.8368 21.1631 12.2727 17.9999 12.2727V15.5456C19.3557 15.5456 20.4546 16.6444 20.4546 18.0002L23.7273 18.0001Z" fill="#1A232E"/>
<path fill-rule="evenodd" clip-rule="evenodd" d="M9.49707 22.909C12.2083 27.6049 18.213 29.2139 22.9091 26.5026L21.2727 23.6683C18.1419 25.4758 14.1388 24.4032 12.3313 21.2725L9.49707 22.909Z" fill="#1A232E"/>
</g>
<g id="Blue Out">
<path fill-rule="evenodd" clip-rule="evenodd" d="M11.0459 30.0456C17.6985 33.8864 26.2052 31.6071 30.0462 24.9543L27.2118 23.3179C24.2746 28.4055 17.7695 30.1484 12.6822 27.2111L11.0459 30.0456Z" fill="#14488C"/>
<path fill-rule="evenodd" clip-rule="evenodd" d="M26.5033 13.0909C23.792 8.39493 17.7872 6.78598 13.0912 9.49722L14.7277 12.3315C17.8583 10.524 21.8616 11.5967 23.6691 14.7274L26.5033 13.0909Z" fill="#14488C"/>
</g>
<g id="Grafit Out">
<path fill-rule="evenodd" clip-rule="evenodd" d="M24.9544 5.95414C18.3018 2.11328 9.79513 4.39264 5.9541 11.0454L8.78843 12.6818C11.7257 7.59424 18.2307 5.85133 23.3181 8.78858L24.9544 5.95414Z" fill="#B6BDCC"/>
<path fill-rule="evenodd" clip-rule="evenodd" d="M17.9998 35.9999C27.9411 35.9999 35.9998 27.9409 35.9998 18H32.727C32.727 26.1337 26.1336 32.7271 17.9996 32.7271L17.9998 35.9999Z" fill="#B6BDCC"/>
</g>
<path id="Black Out" fill-rule="evenodd" clip-rule="evenodd" d="M18 0C8.05873 0 0 8.05894 0 18H3.27288C3.27288 9.86616 9.86637 3.27272 18.0002 3.27272L18 0Z" fill="#1A232E"/>
</g>
</svg>
