<svg xmlns="http://www.w3.org/2000/svg" viewBox="0 0 1376 728.0705"><svg viewBox="0 0 1376 48" xmlns="http://www.w3.org/2000/svg" xmlns:xlink="http://www.w3.org/1999/xlink" width="1376" height="48" fill="none" customFrame="#000000" y="0"><defs><clipPath id="clipPath_13"><rect width="565.000000" height="48.000000" x="0.000000" y="0.000000" fill="rgb(255,255,255)" /></clipPath><clipPath id="clipPath_14"><rect width="345.000000" height="48.000000" x="597.000000" y="0.000000" fill="rgb(255,255,255)" /></clipPath><clipPath id="clipPath_15"><rect width="345.000000" height="48.000000" x="597.000000" y="0.000000" fill="rgb(255,255,255)" /></clipPath><clipPath id="clipPath_16"><rect width="96.000000" height="48.000000" x="597.000000" y="0.000000" fill="rgb(255,255,255)" /></clipPath><clipPath id="clipPath_17"><rect width="96.000000" height="48.000000" x="846.000000" y="0.000000" fill="rgb(255,255,255)" /></clipPath><clipPath id="clipPath_18"><rect width="402.000000" height="48.000000" x="974.000000" y="0.000000" fill="rgb(255,255,255)" /></clipPath></defs><rect id="Top" width="1376.000000" height="48.000000" x="0.000000" y="0.000000" /><g id="Empty" clip-path="url(#clipPath_13)" customFrame="url(#clipPath_13)"><rect id="Empty" width="565.000000" height="48.000000" x="0.000000" y="0.000000" /></g><g id="Top" customFrame="url(#clipPath_14)"><rect id="Top" width="345.000000" height="48.000000" x="597.000000" y="0.000000" fill="rgb(255,255,255)" fill-opacity="0" /><g id="x - line" customFrame="url(#clipPath_15)"><rect id="x - line" width="345.000000" height="48.000000" x="597.000000" y="0.000000" /><g id="Left" customFrame="url(#clipPath_16)"><rect id="Left" width="96.000000" height="48.000000" x="597.000000" y="0.000000" /><path id="Left" d="M693 0C677.616 0 662.845 6.02939 651.855 16.7947L636.43 31.9051C625.899 42.2218 611.743 48 597 48L693 48L693 0Z" fill="rgb(0,0,0)" fill-rule="nonzero" /></g><rect id="Rectangle" width="153.000000" height="48.000000" x="693.000000" y="0.000000" fill="rgb(0,0,0)" /><g id="Right" customFrame="url(#clipPath_17)"><rect id="Right" width="96.000000" height="48.000000" x="846.000000" y="0.000000" /><path id="Right" d="M887.145 16.7947L902.57 31.9051C913.101 42.2218 927.257 48 942 48L846 48L846 0C861.384 0 876.155 6.02939 887.145 16.7947Z" fill="rgb(0,0,0)" fill-rule="nonzero" /></g></g></g><g id="Empty" clip-path="url(#clipPath_18)" customFrame="url(#clipPath_18)"><rect id="Empty" width="402.000000" height="48.000000" x="974.000000" y="0.000000" /></g></svg><svg viewBox="0 0 1376 680.07" xmlns="http://www.w3.org/2000/svg" xmlns:xlink="http://www.w3.org/1999/xlink" width="1376" height="680.0705" fill="none" customFrame="#000000" y="48"><path id="Main" d="M18.7452 18.7452C0 37.4903 0 67.6602 0 128L0 180.071C0 194.813 5.77817 208.969 16.0949 219.501L31.2053 234.926C41.9706 245.916 48 260.687 48 276.071L48 404.071C48 419.454 41.9706 434.226 31.2053 445.215L16.0949 460.64C5.77817 471.172 0 485.328 0 500.071L0 552.07C0 612.41 0 642.58 18.7452 661.325C37.4903 680.07 67.6602 680.07 128 680.07L962 680.07C976.018 679.573 989.376 673.86 999.43 664.011L1014.86 648.901C1025.84 638.135 1040.62 632.106 1056 632.106L1184 632.106C1199.38 632.106 1214.16 638.135 1225.14 648.901L1240.57 664.011C1250.2 673.441 1262.85 679.08 1276.21 679.979C1318.25 679.53 1341.69 676.888 1357.25 661.325C1376 642.58 1376 612.41 1376 552.07L1376 500.071C1376 485.328 1370.22 471.172 1359.91 460.64L1344.79 445.215C1334.03 434.226 1328 419.454 1328 404.071L1328 276.071C1328 260.687 1334.03 245.916 1344.79 234.926L1359.91 219.501C1370.22 208.969 1376 194.813 1376 180.071L1376 128C1376 67.6602 1376 37.4903 1357.25 18.7452C1338.51 0 1308.34 0 1248 0L128 0C67.6602 0 37.4903 0 18.7452 18.7452Z" fill="rgb(0,0,0)" fill-rule="evenodd" /></svg></svg>